<mxfile host="app.diagrams.net" modified="2021-02-22T05:29:05.146Z" agent="5.0 (Windows NT 10.0; Win64; x64) AppleWebKit/537.36 (KHTML, like Gecko) Chrome/87.0.4280.141 Safari/537.36 OPR/73.0.3856.396" etag="qr3WNYvcWTMTy3wwSPTr" version="14.4.2" type="github">
  <diagram id="EHJLgYexe3m0dWmvw2B-" name="Page-1">
    <mxGraphModel dx="1379" dy="804" grid="1" gridSize="10" guides="1" tooltips="1" connect="1" arrows="1" fold="1" page="1" pageScale="1" pageWidth="827" pageHeight="1169" math="0" shadow="0">
      <root>
        <mxCell id="0" />
        <mxCell id="1" parent="0" />
        <mxCell id="JatGq9gqxRxDtXqd6mpv-1" value="- navies" style="edgeStyle=orthogonalEdgeStyle;rounded=0;orthogonalLoop=1;jettySize=auto;html=1;exitX=0.5;exitY=1;exitDx=0;exitDy=0;entryX=0.5;entryY=0;entryDx=0;entryDy=0;endArrow=none;endFill=0;" edge="1" parent="1" source="JatGq9gqxRxDtXqd6mpv-3" target="JatGq9gqxRxDtXqd6mpv-15">
          <mxGeometry x="0.7674" y="25" relative="1" as="geometry">
            <mxPoint as="offset" />
          </mxGeometry>
        </mxCell>
        <mxCell id="JatGq9gqxRxDtXqd6mpv-2" value="- board" style="edgeLabel;html=1;align=center;verticalAlign=middle;resizable=0;points=[];" vertex="1" connectable="0" parent="JatGq9gqxRxDtXqd6mpv-1">
          <mxGeometry x="-0.6008" y="2" relative="1" as="geometry">
            <mxPoint x="23" y="-1.5" as="offset" />
          </mxGeometry>
        </mxCell>
        <mxCell id="JatGq9gqxRxDtXqd6mpv-3" value="Board" style="swimlane;fontStyle=1;align=center;verticalAlign=top;childLayout=stackLayout;horizontal=1;startSize=26;horizontalStack=0;resizeParent=1;resizeParentMax=0;resizeLast=0;collapsible=1;marginBottom=0;" vertex="1" parent="1">
          <mxGeometry x="827" y="200" width="160" height="170" as="geometry" />
        </mxCell>
        <mxCell id="JatGq9gqxRxDtXqd6mpv-4" value="&lt;div&gt;&lt;span&gt;+MAX_LONG: int =100&lt;/span&gt;&lt;/div&gt;&lt;div&gt;&lt;span&gt;+MAX_LAT:&amp;nbsp; int=100&lt;/span&gt;&lt;/div&gt;&lt;div&gt;&lt;span&gt;+MIN_LONG: int=100&lt;/span&gt;&lt;/div&gt;&lt;div&gt;&lt;span&gt;+MIN_LAT: int=100&lt;/span&gt;&lt;/div&gt;&lt;div&gt;&lt;span&gt;-latitud: int&lt;/span&gt;&lt;/div&gt;&lt;div&gt;&lt;span&gt;-longitud: int&lt;/span&gt;&lt;/div&gt;" style="text;html=1;align=left;verticalAlign=middle;resizable=0;points=[];autosize=1;" vertex="1" parent="JatGq9gqxRxDtXqd6mpv-3">
          <mxGeometry y="26" width="160" height="90" as="geometry" />
        </mxCell>
        <mxCell id="JatGq9gqxRxDtXqd6mpv-5" value="" style="line;strokeWidth=1;fillColor=none;align=left;verticalAlign=middle;spacingTop=-1;spacingLeft=3;spacingRight=3;rotatable=0;labelPosition=right;points=[];portConstraint=eastwest;" vertex="1" parent="JatGq9gqxRxDtXqd6mpv-3">
          <mxGeometry y="116" width="160" height="24" as="geometry" />
        </mxCell>
        <mxCell id="JatGq9gqxRxDtXqd6mpv-6" value="+countNavies(): int&lt;br&gt;+move(lat:int, lng: int): void" style="text;html=1;align=left;verticalAlign=middle;resizable=0;points=[];autosize=1;" vertex="1" parent="JatGq9gqxRxDtXqd6mpv-3">
          <mxGeometry y="140" width="160" height="30" as="geometry" />
        </mxCell>
        <mxCell id="JatGq9gqxRxDtXqd6mpv-7" style="edgeStyle=orthogonalEdgeStyle;rounded=0;orthogonalLoop=1;jettySize=auto;html=1;exitX=0.25;exitY=1;exitDx=0;exitDy=0;endArrow=open;endFill=0;" edge="1" parent="1" source="JatGq9gqxRxDtXqd6mpv-15" target="JatGq9gqxRxDtXqd6mpv-22">
          <mxGeometry relative="1" as="geometry" />
        </mxCell>
        <mxCell id="JatGq9gqxRxDtXqd6mpv-8" value="- aircrafts&lt;br&gt;*" style="edgeLabel;html=1;align=center;verticalAlign=middle;resizable=0;points=[];" vertex="1" connectable="0" parent="JatGq9gqxRxDtXqd6mpv-7">
          <mxGeometry x="0.7804" relative="1" as="geometry">
            <mxPoint x="-30" y="5" as="offset" />
          </mxGeometry>
        </mxCell>
        <mxCell id="JatGq9gqxRxDtXqd6mpv-9" style="edgeStyle=orthogonalEdgeStyle;rounded=0;orthogonalLoop=1;jettySize=auto;html=1;exitX=0.5;exitY=1;exitDx=0;exitDy=0;entryX=0.5;entryY=0;entryDx=0;entryDy=0;endArrow=open;endFill=0;" edge="1" parent="1" source="JatGq9gqxRxDtXqd6mpv-15" target="JatGq9gqxRxDtXqd6mpv-27">
          <mxGeometry relative="1" as="geometry" />
        </mxCell>
        <mxCell id="JatGq9gqxRxDtXqd6mpv-10" value="- carriers&lt;br&gt;*" style="edgeLabel;html=1;align=center;verticalAlign=middle;resizable=0;points=[];" vertex="1" connectable="0" parent="JatGq9gqxRxDtXqd6mpv-9">
          <mxGeometry x="0.7562" y="-2" relative="1" as="geometry">
            <mxPoint x="-28" y="-2.0000000000000018" as="offset" />
          </mxGeometry>
        </mxCell>
        <mxCell id="JatGq9gqxRxDtXqd6mpv-11" style="edgeStyle=orthogonalEdgeStyle;rounded=0;orthogonalLoop=1;jettySize=auto;html=1;entryX=0.5;entryY=0;entryDx=0;entryDy=0;endArrow=open;endFill=0;exitX=0.748;exitY=1.046;exitDx=0;exitDy=0;exitPerimeter=0;" edge="1" parent="1" source="JatGq9gqxRxDtXqd6mpv-18" target="JatGq9gqxRxDtXqd6mpv-32">
          <mxGeometry relative="1" as="geometry">
            <Array as="points">
              <mxPoint x="960" y="620" />
              <mxPoint x="960" y="690" />
              <mxPoint x="1200" y="690" />
            </Array>
            <mxPoint x="960" y="678" as="sourcePoint" />
          </mxGeometry>
        </mxCell>
        <mxCell id="JatGq9gqxRxDtXqd6mpv-12" value="- ships&lt;br&gt;*" style="edgeLabel;html=1;align=center;verticalAlign=middle;resizable=0;points=[];" vertex="1" connectable="0" parent="JatGq9gqxRxDtXqd6mpv-11">
          <mxGeometry x="0.8545" y="2" relative="1" as="geometry">
            <mxPoint x="18" y="5.999999999999998" as="offset" />
          </mxGeometry>
        </mxCell>
        <mxCell id="JatGq9gqxRxDtXqd6mpv-13" style="edgeStyle=orthogonalEdgeStyle;rounded=0;orthogonalLoop=1;jettySize=auto;html=1;exitX=0;exitY=0.25;exitDx=0;exitDy=0;entryX=0;entryY=0.25;entryDx=0;entryDy=0;endArrow=open;endFill=0;" edge="1" parent="1" source="JatGq9gqxRxDtXqd6mpv-15" target="JatGq9gqxRxDtXqd6mpv-35">
          <mxGeometry relative="1" as="geometry">
            <Array as="points">
              <mxPoint x="510" y="585" />
              <mxPoint x="510" y="929" />
            </Array>
          </mxGeometry>
        </mxCell>
        <mxCell id="JatGq9gqxRxDtXqd6mpv-14" value="- marines&lt;br&gt;*" style="edgeLabel;html=1;align=center;verticalAlign=middle;resizable=0;points=[];" vertex="1" connectable="0" parent="JatGq9gqxRxDtXqd6mpv-13">
          <mxGeometry x="0.9057" relative="1" as="geometry">
            <mxPoint x="222" y="47" as="offset" />
          </mxGeometry>
        </mxCell>
        <mxCell id="JatGq9gqxRxDtXqd6mpv-15" value="Navy" style="swimlane;fontStyle=1;align=center;verticalAlign=top;childLayout=stackLayout;horizontal=1;startSize=26;horizontalStack=0;resizeParent=1;resizeParentMax=0;resizeLast=0;collapsible=1;marginBottom=0;" vertex="1" parent="1">
          <mxGeometry x="802.5" y="450" width="209" height="168" as="geometry" />
        </mxCell>
        <mxCell id="JatGq9gqxRxDtXqd6mpv-16" value="+ name: String&#xa;+CODE: int&#xa;+Board: boardÂ " style="text;strokeColor=none;fillColor=none;align=left;verticalAlign=top;spacingLeft=4;spacingRight=4;overflow=hidden;rotatable=0;points=[[0,0.5],[1,0.5]];portConstraint=eastwest;" vertex="1" parent="JatGq9gqxRxDtXqd6mpv-15">
          <mxGeometry y="26" width="209" height="54" as="geometry" />
        </mxCell>
        <mxCell id="JatGq9gqxRxDtXqd6mpv-17" value="" style="line;strokeWidth=1;fillColor=none;align=left;verticalAlign=middle;spacingTop=-1;spacingLeft=3;spacingRight=3;rotatable=0;labelPosition=right;points=[];portConstraint=eastwest;" vertex="1" parent="JatGq9gqxRxDtXqd6mpv-15">
          <mxGeometry y="80" width="209" height="38" as="geometry" />
        </mxCell>
        <mxCell id="JatGq9gqxRxDtXqd6mpv-18" value="+Navy(name:&amp;nbsp; String, Board: board)&lt;br&gt;+Alias():int&amp;nbsp;&lt;br&gt;+disponibilidadEnPortaAviones(): int" style="text;html=1;align=left;verticalAlign=middle;resizable=0;points=[];autosize=1;" vertex="1" parent="JatGq9gqxRxDtXqd6mpv-15">
          <mxGeometry y="118" width="209" height="50" as="geometry" />
        </mxCell>
        <mxCell id="JatGq9gqxRxDtXqd6mpv-19" style="edgeStyle=orthogonalEdgeStyle;rounded=0;orthogonalLoop=1;jettySize=auto;html=1;exitX=0.75;exitY=1;exitDx=0;exitDy=0;entryX=0;entryY=0.25;entryDx=0;entryDy=0;endArrow=open;endFill=0;" edge="1" parent="1" source="JatGq9gqxRxDtXqd6mpv-22" target="JatGq9gqxRxDtXqd6mpv-38">
          <mxGeometry relative="1" as="geometry" />
        </mxCell>
        <mxCell id="JatGq9gqxRxDtXqd6mpv-20" value="- location" style="edgeLabel;html=1;align=center;verticalAlign=middle;resizable=0;points=[];" vertex="1" connectable="0" parent="JatGq9gqxRxDtXqd6mpv-19">
          <mxGeometry x="0.8609" y="1" relative="1" as="geometry">
            <mxPoint y="10" as="offset" />
          </mxGeometry>
        </mxCell>
        <mxCell id="JatGq9gqxRxDtXqd6mpv-21" style="edgeStyle=orthogonalEdgeStyle;rounded=0;orthogonalLoop=1;jettySize=auto;html=1;entryX=0.5;entryY=0;entryDx=0;entryDy=0;endArrow=open;endFill=0;" edge="1" parent="1" target="JatGq9gqxRxDtXqd6mpv-35">
          <mxGeometry relative="1" as="geometry">
            <mxPoint x="640" y="820" as="sourcePoint" />
            <Array as="points">
              <mxPoint x="620" y="820" />
              <mxPoint x="620" y="867" />
              <mxPoint x="630" y="867" />
            </Array>
          </mxGeometry>
        </mxCell>
        <mxCell id="JatGq9gqxRxDtXqd6mpv-22" value="Aircraft" style="swimlane;fontStyle=1;align=center;verticalAlign=top;childLayout=stackLayout;horizontal=1;startSize=26;horizontalStack=0;resizeParent=1;resizeParentMax=0;resizeLast=0;collapsible=1;marginBottom=0;" vertex="1" parent="1">
          <mxGeometry x="640" y="720" width="160" height="102" as="geometry" />
        </mxCell>
        <mxCell id="JatGq9gqxRxDtXqd6mpv-23" value="- licencePlate: String&#xa;- inAir: boolean&#xa;- capacity: int&#xa;+ score: int" style="text;strokeColor=none;fillColor=none;align=left;verticalAlign=top;spacingLeft=4;spacingRight=4;overflow=hidden;rotatable=0;points=[[0,0.5],[1,0.5]];portConstraint=eastwest;" vertex="1" parent="JatGq9gqxRxDtXqd6mpv-22">
          <mxGeometry y="26" width="160" height="64" as="geometry" />
        </mxCell>
        <mxCell id="JatGq9gqxRxDtXqd6mpv-24" value="" style="line;strokeWidth=1;fillColor=none;align=left;verticalAlign=middle;spacingTop=-1;spacingLeft=3;spacingRight=3;rotatable=0;labelPosition=right;points=[];portConstraint=eastwest;" vertex="1" parent="JatGq9gqxRxDtXqd6mpv-22">
          <mxGeometry y="90" width="160" height="12" as="geometry" />
        </mxCell>
        <mxCell id="JatGq9gqxRxDtXqd6mpv-25" style="edgeStyle=orthogonalEdgeStyle;rounded=0;orthogonalLoop=1;jettySize=auto;html=1;exitX=0.75;exitY=1;exitDx=0;exitDy=0;endArrow=open;endFill=0;" edge="1" parent="1" source="JatGq9gqxRxDtXqd6mpv-27" target="JatGq9gqxRxDtXqd6mpv-38">
          <mxGeometry relative="1" as="geometry" />
        </mxCell>
        <mxCell id="JatGq9gqxRxDtXqd6mpv-26" style="edgeStyle=orthogonalEdgeStyle;rounded=0;orthogonalLoop=1;jettySize=auto;html=1;exitX=0.25;exitY=1;exitDx=0;exitDy=0;entryX=0.75;entryY=0;entryDx=0;entryDy=0;endArrow=open;endFill=0;" edge="1" parent="1" source="JatGq9gqxRxDtXqd6mpv-27" target="JatGq9gqxRxDtXqd6mpv-35">
          <mxGeometry relative="1" as="geometry" />
        </mxCell>
        <mxCell id="JatGq9gqxRxDtXqd6mpv-27" value="AircraftCarrier&#xa;" style="swimlane;fontStyle=1;align=center;verticalAlign=top;childLayout=stackLayout;horizontal=1;startSize=26;horizontalStack=0;resizeParent=1;resizeParentMax=0;resizeLast=0;collapsible=1;marginBottom=0;" vertex="1" parent="1">
          <mxGeometry x="870" y="720" width="165" height="130" as="geometry" />
        </mxCell>
        <mxCell id="JatGq9gqxRxDtXqd6mpv-28" value="- numberId: int&#xa;- capacity: int&#xa;+ score: int&#xa;-marines: int" style="text;strokeColor=none;fillColor=none;align=left;verticalAlign=top;spacingLeft=4;spacingRight=4;overflow=hidden;rotatable=0;points=[[0,0.5],[1,0.5]];portConstraint=eastwest;" vertex="1" parent="JatGq9gqxRxDtXqd6mpv-27">
          <mxGeometry y="26" width="165" height="64" as="geometry" />
        </mxCell>
        <mxCell id="JatGq9gqxRxDtXqd6mpv-29" value="" style="line;strokeWidth=1;fillColor=none;align=left;verticalAlign=middle;spacingTop=-1;spacingLeft=3;spacingRight=3;rotatable=0;labelPosition=right;points=[];portConstraint=eastwest;" vertex="1" parent="JatGq9gqxRxDtXqd6mpv-27">
          <mxGeometry y="90" width="165" height="10" as="geometry" />
        </mxCell>
        <mxCell id="JatGq9gqxRxDtXqd6mpv-30" value="+ AircraftCarrier(int capacity)&lt;br&gt;+ countAircrafts():int" style="text;html=1;align=left;verticalAlign=middle;resizable=0;points=[];autosize=1;" vertex="1" parent="JatGq9gqxRxDtXqd6mpv-27">
          <mxGeometry y="100" width="165" height="30" as="geometry" />
        </mxCell>
        <mxCell id="JatGq9gqxRxDtXqd6mpv-31" style="edgeStyle=orthogonalEdgeStyle;rounded=0;orthogonalLoop=1;jettySize=auto;html=1;exitX=0.75;exitY=1;exitDx=0;exitDy=0;entryX=0.75;entryY=0;entryDx=0;entryDy=0;endArrow=open;endFill=0;" edge="1" parent="1" source="JatGq9gqxRxDtXqd6mpv-32" target="JatGq9gqxRxDtXqd6mpv-38">
          <mxGeometry relative="1" as="geometry" />
        </mxCell>
        <mxCell id="JatGq9gqxRxDtXqd6mpv-32" value="Ship" style="swimlane;fontStyle=1;align=center;verticalAlign=top;childLayout=stackLayout;horizontal=1;startSize=26;horizontalStack=0;resizeParent=1;resizeParentMax=0;resizeLast=0;collapsible=1;marginBottom=0;" vertex="1" parent="1">
          <mxGeometry x="1120" y="720" width="160" height="88" as="geometry" />
        </mxCell>
        <mxCell id="JatGq9gqxRxDtXqd6mpv-33" value="- numberId: int&#xa;- marines: int&#xa;+score: int" style="text;strokeColor=none;fillColor=none;align=left;verticalAlign=top;spacingLeft=4;spacingRight=4;overflow=hidden;rotatable=0;points=[[0,0.5],[1,0.5]];portConstraint=eastwest;" vertex="1" parent="JatGq9gqxRxDtXqd6mpv-32">
          <mxGeometry y="26" width="160" height="54" as="geometry" />
        </mxCell>
        <mxCell id="JatGq9gqxRxDtXqd6mpv-34" value="" style="line;strokeWidth=1;fillColor=none;align=left;verticalAlign=middle;spacingTop=-1;spacingLeft=3;spacingRight=3;rotatable=0;labelPosition=right;points=[];portConstraint=eastwest;" vertex="1" parent="JatGq9gqxRxDtXqd6mpv-32">
          <mxGeometry y="80" width="160" height="8" as="geometry" />
        </mxCell>
        <mxCell id="JatGq9gqxRxDtXqd6mpv-35" value="Marine" style="swimlane;fontStyle=1;align=center;verticalAlign=top;childLayout=stackLayout;horizontal=1;startSize=26;horizontalStack=0;resizeParent=1;resizeParentMax=0;resizeLast=0;collapsible=1;marginBottom=0;" vertex="1" parent="1">
          <mxGeometry x="550" y="912" width="160" height="68" as="geometry" />
        </mxCell>
        <mxCell id="JatGq9gqxRxDtXqd6mpv-36" value="- name: String&#xa;- range: int" style="text;strokeColor=none;fillColor=none;align=left;verticalAlign=top;spacingLeft=4;spacingRight=4;overflow=hidden;rotatable=0;points=[[0,0.5],[1,0.5]];portConstraint=eastwest;" vertex="1" parent="JatGq9gqxRxDtXqd6mpv-35">
          <mxGeometry y="26" width="160" height="34" as="geometry" />
        </mxCell>
        <mxCell id="JatGq9gqxRxDtXqd6mpv-37" value="" style="line;strokeWidth=1;fillColor=none;align=left;verticalAlign=middle;spacingTop=-1;spacingLeft=3;spacingRight=3;rotatable=0;labelPosition=right;points=[];portConstraint=eastwest;" vertex="1" parent="JatGq9gqxRxDtXqd6mpv-35">
          <mxGeometry y="60" width="160" height="8" as="geometry" />
        </mxCell>
        <mxCell id="JatGq9gqxRxDtXqd6mpv-38" value="Position" style="swimlane;fontStyle=1;align=center;verticalAlign=top;childLayout=stackLayout;horizontal=1;startSize=26;horizontalStack=0;resizeParent=1;resizeParentMax=0;resizeLast=0;collapsible=1;marginBottom=0;" vertex="1" parent="1">
          <mxGeometry x="1120" y="900" width="160" height="68" as="geometry" />
        </mxCell>
        <mxCell id="JatGq9gqxRxDtXqd6mpv-39" value="- latitude: int&#xa;- longitude: int" style="text;strokeColor=none;fillColor=none;align=left;verticalAlign=top;spacingLeft=4;spacingRight=4;overflow=hidden;rotatable=0;points=[[0,0.5],[1,0.5]];portConstraint=eastwest;" vertex="1" parent="JatGq9gqxRxDtXqd6mpv-38">
          <mxGeometry y="26" width="160" height="34" as="geometry" />
        </mxCell>
        <mxCell id="JatGq9gqxRxDtXqd6mpv-40" value="" style="line;strokeWidth=1;fillColor=none;align=left;verticalAlign=middle;spacingTop=-1;spacingLeft=3;spacingRight=3;rotatable=0;labelPosition=right;points=[];portConstraint=eastwest;" vertex="1" parent="JatGq9gqxRxDtXqd6mpv-38">
          <mxGeometry y="60" width="160" height="8" as="geometry" />
        </mxCell>
        <mxCell id="JatGq9gqxRxDtXqd6mpv-41" style="edgeStyle=orthogonalEdgeStyle;rounded=0;orthogonalLoop=1;jettySize=auto;html=1;entryX=1;entryY=0.5;entryDx=0;entryDy=0;endArrow=open;endFill=0;exitX=0;exitY=0.5;exitDx=0;exitDy=0;" edge="1" parent="1" source="JatGq9gqxRxDtXqd6mpv-33" target="JatGq9gqxRxDtXqd6mpv-36">
          <mxGeometry relative="1" as="geometry">
            <mxPoint x="1100" y="750" as="sourcePoint" />
            <Array as="points">
              <mxPoint x="1060" y="763" />
              <mxPoint x="1060" y="955" />
            </Array>
          </mxGeometry>
        </mxCell>
        <mxCell id="JatGq9gqxRxDtXqd6mpv-42" style="edgeStyle=orthogonalEdgeStyle;rounded=0;orthogonalLoop=1;jettySize=auto;html=1;exitX=0;exitY=0.5;exitDx=0;exitDy=0;entryX=0.25;entryY=0;entryDx=0;entryDy=0;endArrow=open;endFill=0;" edge="1" parent="1" source="JatGq9gqxRxDtXqd6mpv-23" target="JatGq9gqxRxDtXqd6mpv-35">
          <mxGeometry relative="1" as="geometry" />
        </mxCell>
        <mxCell id="JatGq9gqxRxDtXqd6mpv-43" value="- pilot&lt;br&gt;1" style="edgeLabel;html=1;align=center;verticalAlign=middle;resizable=0;points=[];" vertex="1" connectable="0" parent="JatGq9gqxRxDtXqd6mpv-42">
          <mxGeometry x="0.7732" y="-2" relative="1" as="geometry">
            <mxPoint x="42" y="-9" as="offset" />
          </mxGeometry>
        </mxCell>
        <mxCell id="JatGq9gqxRxDtXqd6mpv-44" value="- copilot&lt;br&gt;0..1" style="edgeLabel;html=1;align=center;verticalAlign=middle;resizable=0;points=[];" vertex="1" connectable="0" parent="JatGq9gqxRxDtXqd6mpv-42">
          <mxGeometry x="0.3491" relative="1" as="geometry">
            <mxPoint x="-10" y="33" as="offset" />
          </mxGeometry>
        </mxCell>
        <mxCell id="JatGq9gqxRxDtXqd6mpv-45" value="- marines&lt;br&gt;*" style="edgeLabel;html=1;align=center;verticalAlign=middle;resizable=0;points=[];" vertex="1" connectable="0" parent="1">
          <mxGeometry x="520" y="950" as="geometry" />
        </mxCell>
        <mxCell id="JatGq9gqxRxDtXqd6mpv-46" value="- marines&lt;br&gt;*" style="edgeLabel;html=1;align=center;verticalAlign=middle;resizable=0;points=[];" vertex="1" connectable="0" parent="1">
          <mxGeometry x="700" y="890" as="geometry" />
        </mxCell>
        <mxCell id="JatGq9gqxRxDtXqd6mpv-47" value="- location" style="edgeLabel;html=1;align=center;verticalAlign=middle;resizable=0;points=[];" vertex="1" connectable="0" parent="1">
          <mxGeometry x="1100" y="934" as="geometry">
            <mxPoint x="72" y="-46" as="offset" />
          </mxGeometry>
        </mxCell>
        <mxCell id="JatGq9gqxRxDtXqd6mpv-48" value="- location" style="edgeLabel;html=1;align=center;verticalAlign=middle;resizable=0;points=[];" vertex="1" connectable="0" parent="1">
          <mxGeometry x="1190" y="934" as="geometry">
            <mxPoint x="72" y="-46" as="offset" />
          </mxGeometry>
        </mxCell>
      </root>
    </mxGraphModel>
  </diagram>
</mxfile>
